{
  "accessors": [
    {
      "bufferView": 2,
      "componentType": 5126,
      "count": 10513,
      "max": [
        0.2742999494075775,
        0.26103538274765015,
        0.14407110214233398
      ],
      "min": [
        -0.27585458755493164,
        -0.35195234417915344,
        -0.12488541007041931
      ],
      "type": "VEC3"
    },
    {
      "bufferView": 2,
      "byteOffset": 126156,
      "componentType": 5126,
      "count": 10513,
      "max": [
        0.9999854564666748,
        0.9997369050979614,
        0.9999558329582214
      ],
      "min": [
        -0.9999788999557495,
        -0.9999471306800842,
        -0.9999760985374451
      ],
      "type": "VEC3"
    },
    {
      "bufferView": 3,
      "componentType": 5126,
      "count": 10513,
      "max": [
        0.9999882578849792,
        0.9996187686920166,
        0.9999997615814209,
        1.0
      ],
      "min": [
        -0.9999977946281433,
        -0.9983304738998413,
        -0.9999971985816956,
        -1.0
      ],
      "type": "VEC4"
    },
    {
      "bufferView": 1,
      "componentType": 5126,
      "count": 10513,
      "max": [
        0.9892034530639648,
        0.9808643460273743
      ],
      "min": [
        0.01486293226480484,
        0.01813805103302002
      ],
      "type": "VEC2"
    },
    {
      "bufferView": 1,
      "byteOffset": 84104,
      "componentType": 5126,
      "count": 10513,
      "max": [
        0.9892034530639648,
        0.9808643460273743
      ],
      "min": [
        0.01486293226480484,
        0.01813805103302002
      ],
      "type": "VEC2"
    },
    {
      "bufferView": 0,
      "componentType": 5125,
      "count": 58551,
      "type": "SCALAR"
    }
  ],
  "asset": {
    "extras": {
      "author": "ttv.thuyvy (https://sketchfab.com/ttv.thuyvy)",
      "license": "CC-BY-4.0 (http://creativecommons.org/licenses/by/4.0/)",
      "source": "https://sketchfab.com/3d-models/shirt-baked-803c1f1527824c3baf62693b9afc4e13",
      "title": "shirt_baked"
    },
    "generator": "Sketchfab-15.50.0",
    "version": "2.0"
  },
  "bufferViews": [
    {
      "buffer": 0,
      "byteLength": 234204,
      "name": "floatBufferViews",
      "target": 34963
    },
    {
      "buffer": 0,
      "byteLength": 168208,
      "byteOffset": 234204,
      "byteStride": 8,
      "name": "floatBufferViews",
      "target": 34962
    },
    {
      "buffer": 0,
      "byteLength": 252312,
      "byteOffset": 402412,
      "byteStride": 12,
      "name": "floatBufferViews",
      "target": 34962
    },
    {
      "buffer": 0,
      "byteLength": 168208,
      "byteOffset": 654724,
      "byteStride": 16,
      "name": "floatBufferViews",
      "target": 34962
    }
  ],
  "buffers": [
    {
      "byteLength": 822932,
      "uri": "scene.bin"
    }
  ],
  "extensionsUsed": [
    "KHR_texture_transform"
  ],
  "images": [
    {
      "uri": "textures/lambert1_metallicRoughness.png"
    },
    {
      "uri": "textures/lambert1_normal.jpeg"
    }
  ],
  "materials": [
    {
      "doubleSided": true,
      "name": "lambert1",
      "normalTexture": {
        "extensions": {
          "KHR_texture_transform": {
            "offset": [
              0,
              -7
            ],
            "scale": [
              8,
              8
            ]
          }
        },
        "index": 1
      },
      "occlusionTexture": {
        "index": 0
      },
      "pbrMetallicRoughness": {
        "baseColorFactor": [
          0.5,
          0.5,
          0.5,
          1.0
        ],
        "metallicFactor": 0.0,
        "metallicRoughnessTexture": {
          "index": 0
        },
        "roughnessFactor": 0.552786
      }
    }
  ],
  "meshes": [
    {
      "name": "Object_0",
      "primitives": [
        {
          "attributes": {
            "NORMAL": 1,
            "POSITION": 0,
            "TANGENT": 2,
            "TEXCOORD_0": 3,
            "TEXCOORD_1": 4
          },
          "indices": 5,
          "material": 0,
          "mode": 4
        }
      ]
    }
  ],
  "nodes": [
    {
      "children": [
        1
      ],
      "matrix": [
        1.0,
        0.0,
        0.0,
        0.0,
        0.0,
        2.220446049250313e-16,
        -1.0,
        0.0,
        0.0,
        1.0,
        2.220446049250313e-16,
        0.0,
        0.0,
        0.0,
        0.0,
        1.0
      ],
      "name": "Sketchfab_model"
    },
    {
      "children": [
        2
      ],
      "name": "root"
    },
    {
      "children": [
        3
      ],
      "matrix": [
        1.0,
        0.0,
        0.0,
        0.0,
        0.0,
        2.220446049250313e-16,
        1.0,
        0.0,
        0.0,
        -1.0,
        2.220446049250313e-16,
        0.0,
        0.0,
        0.0,
        0.0,
        1.0
      ],
      "name": "GLTF_SceneRootNode"
    },
    {
      "children": [
        4
      ],
      "name": "T_Shirt_male_0"
    },
    {
      "mesh": 0,
      "name": "Object_4"
    }
  ],
  "samplers": [
    {
      "magFilter": 9729,
      "minFilter": 9987,
      "wrapS": 10497,
      "wrapT": 10497
    }
  ],
  "scene": 0,
  "scenes": [
    {
      "name": "Sketchfab_Scene",
      "nodes": [
        0
      ]
    }
  ],
  "textures": [
    {
      "sampler": 0,
      "source": 0
    },
    {
      "sampler": 0,
      "source": 1
    }
  ]
}
