{
  "asset": {
    "generator": "Khronos glTF Blender I/O v1.6.16",
    "version": "2.0"
  },
  "scene": 0,
  "scenes": [
    {
      "name": "Scene",
      "nodes": [
        0,
        1
      ]
    }
  ],
  "nodes": [
    {
      "mesh": 0,
      "name": "sofa_02_Base",
      "translation": [
        0.00026735191931948066,
        0.00020578503608703613,
        0.03126468509435654
      ]
    },
    {
      "mesh": 1,
      "name": "sofa_02_Seat",
      "translation": [
        0.00026735191931948066,
        0.00020578503608703613,
        0.03126468509435654
      ]
    }
  ],
  "materials": [
    {
      "doubleSided": true,
      "name": "sofa_02",
      "normalTexture": {
        "index": 0
      },
      "pbrMetallicRoughness": {
        "baseColorTexture": {
          "index": 1
        },
        "metallicRoughnessTexture": {
          "index": 2
        }
      }
    }
  ],
  "meshes": [
    {
      "name": "Plane.001",
      "primitives": [
        {
          "attributes": {
            "POSITION": 0,
            "NORMAL": 1,
            "TEXCOORD_0": 2
          },
          "indices": 3,
          "material": 0
        }
      ]
    },
    {
      "name": "Mesh.007",
      "primitives": [
        {
          "attributes": {
            "POSITION": 4,
            "NORMAL": 5,
            "TEXCOORD_0": 6
          },
          "indices": 7,
          "material": 0
        }
      ]
    }
  ],
  "textures": [
    {
      "sampler": 0,
      "source": 0
    },
    {
      "sampler": 0,
      "source": 1
    },
    {
      "sampler": 0,
      "source": 2
    }
  ],
  "images": [
    {
      "mimeType": "image/jpeg",
      "name": "sofa_02_nor_gl",
      "uri": "textures/sofa_02_nor_gl_4k.jpg"
    },
    {
      "mimeType": "image/jpeg",
      "name": "sofa_02_diff",
      "uri": "textures/sofa_02_diff_4k.jpg"
    },
    {
      "mimeType": "image/jpeg",
      "name": "sofa_02_metallic-sofa_02_roughness",
      "uri": "textures/sofa_02_arm_4k.jpg"
    }
  ],
  "accessors": [
    {
      "bufferView": 0,
      "componentType": 5126,
      "count": 1616,
      "max": [
        0.9035836458206177,
        0.7094888687133789,
        0.3020688593387604
      ],
      "min": [
        -0.9035837054252625,
        -5.960464477539063e-8,
        -0.5089631676673889
      ],
      "type": "VEC3"
    },
    {
      "bufferView": 1,
      "componentType": 5126,
      "count": 1616,
      "type": "VEC3"
    },
    {
      "bufferView": 2,
      "componentType": 5126,
      "count": 1616,
      "type": "VEC2"
    },
    {
      "bufferView": 3,
      "componentType": 5123,
      "count": 7032,
      "type": "SCALAR"
    },
    {
      "bufferView": 4,
      "componentType": 5126,
      "count": 212,
      "max": [
        0.7098315358161926,
        0.41038596630096436,
        0.3087882101535797
      ],
      "min": [
        -0.7062357068061829,
        0.24655179679393768,
        -0.2188045084476471
      ],
      "type": "VEC3"
    },
    {
      "bufferView": 5,
      "componentType": 5126,
      "count": 212,
      "type": "VEC3"
    },
    {
      "bufferView": 6,
      "componentType": 5126,
      "count": 212,
      "type": "VEC2"
    },
    {
      "bufferView": 7,
      "componentType": 5123,
      "count": 1152,
      "type": "SCALAR"
    }
  ],
  "bufferViews": [
    {
      "buffer": 0,
      "byteLength": 19392,
      "byteOffset": 0
    },
    {
      "buffer": 0,
      "byteLength": 19392,
      "byteOffset": 19392
    },
    {
      "buffer": 0,
      "byteLength": 12928,
      "byteOffset": 38784
    },
    {
      "buffer": 0,
      "byteLength": 14064,
      "byteOffset": 51712
    },
    {
      "buffer": 0,
      "byteLength": 2544,
      "byteOffset": 65776
    },
    {
      "buffer": 0,
      "byteLength": 2544,
      "byteOffset": 68320
    },
    {
      "buffer": 0,
      "byteLength": 1696,
      "byteOffset": 70864
    },
    {
      "buffer": 0,
      "byteLength": 2304,
      "byteOffset": 72560
    }
  ],
  "samplers": [
    {
      "magFilter": 9729,
      "minFilter": 9987
    }
  ],
  "buffers": [
    {
      "byteLength": 74864,
      "uri": "sofa_02.bin"
    }
  ]
}